<?xml version="1.0" standalone="no"?>
<!DOCTYPE svg PUBLIC "-//W3C//DTD SVG 20010904//EN"
 "http://www.w3.org/TR/2001/REC-SVG-20010904/DTD/svg10.dtd">
<svg version="1.0" xmlns="http://www.w3.org/2000/svg"
 width="260.000000pt" height="260.000000pt" viewBox="0 0 260.000000 260.000000"
 preserveAspectRatio="xMidYMid meet">
<metadata>
Created by potrace 1.11, written by Peter Selinger 2001-2013
</metadata>
<g transform="translate(0.000000,260.000000) scale(0.100000,-0.100000)"
fill="#000000" stroke="none">
<path d="M0 1300 l0 -1300 1300 0 1300 0 0 1300 0 1300 -1300 0 -1300 0 0
-1300z m918 457 c81 -57 205 -143 276 -193 70 -49 184 -128 253 -176 l124 -86
-33 -24 c-134 -99 -241 -167 -251 -161 -7 4 -70 47 -140 96 l-128 89 -115 -79
c-63 -43 -122 -84 -132 -91 -18 -12 -19 -1 -25 265 -11 433 -10 476 8 469 9
-3 82 -52 163 -109z m932 -842 l0 -186 -112 78 c-62 42 -123 84 -135 93 -21
17 -20 18 110 108 73 50 133 91 135 91 1 1 2 -82 2 -184z"/>
</g>
</svg>
